<svg xmlns="http://www.w3.org/2000/svg" viewBox="0 0 64 64">
  <rect width="64" height="64" rx="12" fill="#201b16"/>
  <path fill="#a89684" transform="translate(12.652,47.152) scale(0.0230,-0.0230)" d="M207.5029296875 23.825439453125Q207.5029296875 0 180.25244140625 0H62.1622314453125Q40.04931640625 0 40.04931640625 20.6878662109375V147.6651611328125Q40.04931640625 165.927978515625 55.599609375 165.927978515625H192.6651611328125Q207.5029296875 165.927978515625 207.5029296875 149.2100327435662Z"/>
  <path fill="#f4f4f3" transform="translate(18.425,47.152) scale(0.0414,-0.0414)" d="M341.022705078125 50.624267578125Q309.998046875 23.1622314453125 271.3358154296875 6.58111572265625Q232.673583984375 -10 183.0863037109375 -10Q106.9364013671875 -10 63.573974609375 31.1375732421875Q20.2115478515625 72.275146484375 20.2115478515625 135.7125244140625Q20.2115478515625 192.4127197265625 54.8367919921875 234.1129150390625Q89.4620361328125 275.8131103515625 154.4373779296875 299.45068359375Q219.4127197265625 323.0882568359375 309.9630126953124 325.1005859375L345.1356201171875 327.6878662109375Q350.2855224609375 327.975341796875 355.498046875 330.7628173828125Q360.7105712890625 333.55029296875 360.7105712890625 341.975341796875V363Q360.7105712890625 401.34912109375 338.7362060546875 422.81732177734375Q316.7618408203125 444.2855224609375 275.8377685546875 444.2855224609375Q245.926025390625 444.2855224609375 218.4639892578125 430.7608642578125Q191.001953125 417.2362060546875 171.9649658203125 384.34912109375Q168.25244140625 377.4990234375 164.47113037109375 375.43023681640625Q160.6898193359375 373.3614501953125 149.85205078125 375.3614501953125L49.6119384765625 398.19921875Q44.04931640625 400.19921875 41.4117431640625 404.69305419921875Q38.774169921875 409.1868896484375 44.624267578125 423.874755859375Q70.2115478515625 482.9876708984375 131.3994140625 511.49383544921875Q192.5872802734375 540 282.825439453125 540Q365.476318359375 540 414.6015625 519.1437377929688Q463.726806640625 498.2874755859375 485.65802001953125 460.7125244140625Q507.5892333984375 423.1375732421875 507.5892333984375 372.7001953125V22.1129150390625Q507.5892333984375 9.7001953125 503.6641845703125 4.85009765625Q499.7391357421875 0 488.326416015625 0H385.5360107421875Q375.123291015625 0 370.4857177734375 8.05645751953125Q365.84814453125 16.1129150390625 364.423095703125 27.525634765625L363.1356201171875 50.04931640625Q360.423095703125 67.74951171875 341.022705078125 50.624267578125ZM360.7105712890625 236.073974609375Q360.7105712890625 253.4990234375 345.998046875 252.924072265625L317.5626220703125 250.9117431640625Q292.05126953125 249.7618408203125 265.9393310546875 243.39324951171875Q239.827392578125 237.024658203125 218.527587890625 225.36859130859375Q197.227783203125 213.7125244140625 183.87152099609375 196.4127197265625Q170.5152587890625 179.1129150390625 170.5152587890625 155.8131103515625Q170.5152587890625 125.9013671875 191.69598388671875 108.3017578125Q212.876708984375 90.7021484375 249.65087890625 90.7021484375Q274.5379638671875 90.7021484375 294.3624267578125 98.85821533203125Q314.1868896484375 107.0142822265625 327.9364013671875 118.326416015625Q342.3984375 130.6385498046875 351.55450439453125 143.7381591796875Q360.7105712890625 156.8377685546875 360.7105712890625 171V236.073974609375Z"/>
  <path fill="#f4f4f3" transform="translate(41.734,47.152) scale(0.0414,-0.0414)" d="M209.377685546875 24.1129150390625Q209.377685546875 10.7001953125 203.1025390625 5.35009765625Q196.827392578125 0 182.4146728515625 0H77.0616455078125Q64.3614501953125 0 59.86761474609375 4.85009765625Q55.373779296875 9.7001953125 55.373779296875 20.6878662109375V510.7371826171875Q55.373779296875 530 71.4990234375 530H193.9649658203125Q209.377685546875 530 209.377685546875 512.874755859375ZM210.8150634765625 619.3861083984375Q210.8150634765625 594.123291015625 183.85205078125 594.123291015625H75.624267578125Q62.924072265625 594.123291015625 58.43023681640625 599.9046020507812Q53.9364013671875 605.6859130859375 53.9364013671875 616.673583984375V721.874755859375Q53.9364013671875 742 70.924072265625 742H194.5399169921875Q210.8150634765625 742 210.8150634765625 723.2998046875Z"/>
</svg>
